<?xml version="1.0" encoding="UTF-8" standalone="no"?>
<!-- Created with Inkscape (http://www.inkscape.org/) -->

<svg
   xmlns:dc="http://purl.org/dc/elements/1.1/"
   xmlns:cc="http://creativecommons.org/ns#"
   xmlns:rdf="http://www.w3.org/1999/02/22-rdf-syntax-ns#"
   xmlns:svg="http://www.w3.org/2000/svg"
   xmlns="http://www.w3.org/2000/svg"
   xmlns:sodipodi="http://sodipodi.sourceforge.net/DTD/sodipodi-0.dtd"
   xmlns:inkscape="http://www.inkscape.org/namespaces/inkscape"
   width="1053.9907"
   height="231.88852"
   viewBox="0 0 278.86839 61.353835"
   version="1.1"
   id="svg8"
   inkscape:version="0.92.2 (5c3e80d, 2017-08-06)"
   sodipodi:docname="horizontal_white.svg"
   inkscape:export-filename="/home/anxhelo/Files/Design/exactapi/horizontal_black.png"
   inkscape:export-xdpi="96"
   inkscape:export-ydpi="96">
  <defs
     id="defs2" />
  <sodipodi:namedview
     id="base"
     pagecolor="#ffffff"
     bordercolor="#666666"
     borderopacity="1.0"
     inkscape:pageopacity="0.0"
     inkscape:pageshadow="2"
     inkscape:zoom="0.35753087"
     inkscape:cx="482.21157"
     inkscape:cy="150.40838"
     inkscape:document-units="mm"
     inkscape:current-layer="layer1"
     inkscape:document-rotation="0"
     showgrid="false"
     borderlayer="true"
     inkscape:showpageshadow="false"
     units="px"
     inkscape:pagecheckerboard="false"
     showguides="true"
     inkscape:window-width="1366"
     inkscape:window-height="715"
     inkscape:window-x="0"
     inkscape:window-y="0"
     inkscape:window-maximized="1"
     fit-margin-top="0"
     fit-margin-left="0"
     fit-margin-right="0"
     fit-margin-bottom="0">
    <inkscape:grid
       type="xygrid"
       id="grid10"
       originx="-68.884081"
       originy="-91.95357" />
  </sodipodi:namedview>
  <metadata
     id="metadata5">
    <rdf:RDF>
      <cc:Work
         rdf:about="">
        <dc:format>image/svg+xml</dc:format>
        <dc:type
           rdf:resource="http://purl.org/dc/dcmitype/StillImage" />
        <dc:title></dc:title>
      </cc:Work>
    </rdf:RDF>
  </metadata>
  <g
     inkscape:label="Layer 1"
     inkscape:groupmode="layer"
     id="layer1"
     transform="translate(-68.884078,-143.6926)">
    <g
       id="g179581"
       style="fill:#ffffff">
      <g
         id="g89868"
         transform="matrix(1.8940782,0,0,1.8940782,-60.421403,-235.6534)"
         style="fill:#ffffff">
        <path
           style="fill:#ffffff"
           inkscape:connector-curvature="0"
           class="st0"
           d="m 108.4,216.7 c 0,-1.4 0.2,-2.6 0.6,-3.6 0.4,-1 1,-1.9 1.6,-2.6 0.7,-0.7 1.5,-1.2 2.3,-1.6 0.9,-0.3 1.8,-0.5 2.7,-0.5 2.2,0 3.8,0.7 5.1,2 1.2,1.3 1.8,3.3 1.8,6 0,0.2 0,0.4 0,0.7 0,0.3 0,0.5 0,0.7 h -10.4 c 0.1,1.3 0.5,2.2 1.3,2.9 0.8,0.7 1.9,1 3.4,1 0.9,0 1.7,-0.1 2.4,-0.2 0.7,-0.2 1.3,-0.3 1.7,-0.5 l 0.5,3 c -0.2,0.1 -0.5,0.2 -0.8,0.3 -0.4,0.1 -0.8,0.2 -1.2,0.3 -0.5,0.1 -0.9,0.2 -1.5,0.2 -0.5,0.1 -1.1,0.1 -1.6,0.1 -1.4,0 -2.6,-0.2 -3.6,-0.6 -1,-0.4 -1.9,-1 -2.5,-1.7 -0.7,-0.7 -1.2,-1.6 -1.5,-2.6 -0.1,-1 -0.3,-2.1 -0.3,-3.3 z m 10.6,-1.6 c 0,-0.5 -0.1,-1 -0.2,-1.4 -0.1,-0.5 -0.3,-0.8 -0.6,-1.2 -0.3,-0.4 -0.6,-0.6 -1,-0.8 -0.4,-0.2 -0.9,-0.3 -1.4,-0.3 -0.6,0 -1,0.1 -1.5,0.3 -0.5,0.2 -0.8,0.5 -1.1,0.8 -0.3,0.3 -0.5,0.7 -0.7,1.2 -0.2,0.4 -0.3,0.9 -0.3,1.4 z"
           id="path89852" />
        <path
           style="fill:#ffffff"
           inkscape:connector-curvature="0"
           class="st0"
           d="m 130.6,213.6 3.3,-4.8 h 3.8 l -5.3,7.5 c 1.1,1.4 2.2,2.8 3.2,4.2 1,1.4 1.8,2.7 2.5,4 h -4 c -0.2,-0.4 -0.4,-0.8 -0.7,-1.2 -0.3,-0.4 -0.6,-0.9 -0.9,-1.4 -0.3,-0.5 -0.7,-0.9 -1,-1.4 -0.3,-0.5 -0.7,-0.9 -1,-1.3 -0.7,0.8 -1.4,1.7 -2.1,2.7 -0.7,1 -1.2,1.9 -1.7,2.6 H 123 c 0.3,-0.6 0.7,-1.2 1.1,-1.9 0.4,-0.7 0.9,-1.3 1.4,-2 0.5,-0.7 1,-1.4 1.5,-2.1 0.5,-0.7 1,-1.4 1.6,-2 l -5.3,-7.7 h 4 z"
           id="path89854" />
        <path
           style="fill:#ffffff"
           inkscape:connector-curvature="0"
           class="st0"
           d="m 144.5,208.4 c 1.2,0 2.2,0.1 3,0.5 0.8,0.3 1.5,0.7 2,1.3 0.5,0.5 0.8,1.2 1.1,2 0.3,0.8 0.3,1.6 0.3,2.5 v 9.5 c -0.6,0.1 -1.4,0.3 -2.5,0.4 -1.1,0.2 -2.4,0.3 -3.8,0.3 -0.9,0 -1.8,-0.1 -2.6,-0.3 -0.8,-0.2 -1.4,-0.5 -2,-0.9 -0.6,-0.4 -1,-0.9 -1.3,-1.6 -0.3,-0.6 -0.5,-1.4 -0.5,-2.4 0,-0.9 0.2,-1.7 0.5,-2.3 0.3,-0.6 0.8,-1.1 1.4,-1.5 0.6,-0.4 1.3,-0.7 2.1,-0.8 0.8,-0.1 1.6,-0.3 2.5,-0.3 0.4,0 0.8,0 1.3,0.1 0.4,0.1 0.9,0.1 1.4,0.3 v -0.6 c 0,-0.4 0,-0.8 -0.1,-1.2 -0.1,-0.4 -0.3,-0.7 -0.5,-1 -0.3,-0.3 -0.6,-0.5 -1,-0.7 -0.4,-0.2 -0.9,-0.2 -1.5,-0.2 -0.8,0 -1.6,0.1 -2.3,0.2 -0.7,0.1 -1.3,0.3 -1.7,0.4 l -0.4,-2.9 c 0.5,-0.2 1.1,-0.3 2,-0.5 0.7,-0.2 1.6,-0.3 2.6,-0.3 z m 0.3,13.6 c 1.1,0 2,-0.1 2.5,-0.2 v -4 c -0.2,-0.1 -0.5,-0.1 -0.9,-0.2 -0.4,-0.1 -0.8,-0.1 -1.3,-0.1 -0.4,0 -0.8,0 -1.2,0.1 -0.4,0.1 -0.8,0.2 -1.1,0.3 -0.3,0.2 -0.6,0.4 -0.8,0.7 -0.2,0.3 -0.3,0.7 -0.3,1.1 0,0.9 0.3,1.5 0.8,1.8 0.5,0.3 1.4,0.5 2.3,0.5 z"
           id="path89856" />
        <path
           style="fill:#ffffff"
           inkscape:connector-curvature="0"
           class="st0"
           d="m 153,216.7 c 0,-1.2 0.2,-2.2 0.5,-3.3 0.4,-1 0.9,-1.9 1.5,-2.6 0.7,-0.7 1.5,-1.3 2.4,-1.7 1,-0.4 2,-0.6 3.2,-0.6 1.5,0 2.9,0.3 4.2,0.8 l -0.8,3 c -0.4,-0.2 -0.9,-0.3 -1.4,-0.5 -0.5,-0.1 -1.1,-0.2 -1.7,-0.2 -1.4,0 -2.5,0.4 -3.2,1.3 -0.7,0.9 -1.1,2.1 -1.1,3.8 0,1.6 0.3,2.8 1,3.7 0.7,0.9 1.9,1.4 3.5,1.4 0.6,0 1.2,-0.1 1.8,-0.2 0.6,-0.1 1.1,-0.3 1.6,-0.5 l 0.5,3 c -0.4,0.2 -1,0.4 -1.8,0.5 -0.8,0.2 -1.6,0.2 -2.5,0.2 -1.3,0 -2.5,-0.2 -3.5,-0.6 -1,-0.4 -1.8,-1 -2.5,-1.7 -0.7,-0.7 -1.1,-1.6 -1.5,-2.6 -0.1,-1 -0.2,-2 -0.2,-3.2 z"
           id="path89858" />
        <path
           style="fill:#ffffff"
           inkscape:connector-curvature="0"
           class="st0"
           d="m 166.3,204.7 3.6,-0.6 v 4.7 h 5.6 v 3 h -5.6 v 6.4 c 0,1.3 0.2,2.2 0.6,2.7 0.4,0.5 1.1,0.8 2,0.8 0.7,0 1.2,-0.1 1.8,-0.2 0.5,-0.1 0.9,-0.3 1.2,-0.4 l 0.6,2.9 c -0.4,0.2 -1,0.4 -1.7,0.6 -0.7,0.2 -1.5,0.3 -2.4,0.3 -1.1,0 -2.1,-0.1 -2.8,-0.4 -0.8,-0.3 -1.3,-0.7 -1.8,-1.3 -0.4,-0.6 -0.8,-1.3 -0.9,-2.1 -0.2,-0.8 -0.3,-1.7 -0.3,-2.8 v -13.6 z"
           id="path89860" />
        <path
           style="fill:#ffffff"
           inkscape:connector-curvature="0"
           class="st1"
           d="m 188,208.6 c 1,0 1.9,0.1 2.6,0.4 0.7,0.3 1.3,0.7 1.7,1.2 0.4,0.5 0.8,1.1 1,1.8 0.2,0.7 0.3,1.5 0.3,2.3 v 9.8 c -0.2,0.1 -0.5,0.1 -0.9,0.2 -0.4,0.1 -0.8,0.1 -1.3,0.2 -0.5,0.1 -1.1,0.1 -1.7,0.2 -0.6,0 -1.2,0.1 -1.9,0.1 -0.8,0 -1.6,-0.1 -2.3,-0.3 -0.7,-0.2 -1.3,-0.5 -1.8,-0.9 -0.5,-0.4 -0.9,-0.9 -1.2,-1.5 -0.3,-0.6 -0.4,-1.4 -0.4,-2.2 0,-0.8 0.2,-1.6 0.5,-2.2 0.3,-0.6 0.8,-1.1 1.4,-1.5 0.6,-0.4 1.3,-0.7 2.1,-0.9 0.8,-0.2 1.7,-0.3 2.6,-0.3 0.3,0 0.6,0 0.9,0 0.3,0 0.6,0.1 0.9,0.1 0.3,0 0.5,0.1 0.8,0.1 0.3,0 0.4,0.1 0.4,0.1 v -1 c 0,-0.5 0,-1.1 -0.1,-1.6 -0.1,-0.5 -0.3,-1 -0.5,-1.4 -0.3,-0.4 -0.6,-0.7 -1.1,-1 -0.5,-0.3 -1.1,-0.4 -1.9,-0.4 -1.1,0 -2,0.1 -2.6,0.2 -0.6,0.2 -1,0.3 -1.2,0.4 l -0.3,-1.7 c 0.3,-0.2 0.9,-0.3 1.6,-0.5 0.6,0.4 1.4,0.3 2.4,0.3 z m 0.2,14.5 c 0.8,0 1.4,0 2,-0.1 0.6,0 1.1,-0.1 1.5,-0.2 v -5.5 c -0.2,-0.1 -0.6,-0.2 -1,-0.3 -0.5,-0.1 -1.1,-0.2 -2,-0.2 -0.5,0 -1,0 -1.5,0.1 -0.5,0.1 -1,0.2 -1.4,0.5 -0.4,0.2 -0.8,0.5 -1.1,0.9 -0.3,0.4 -0.4,0.9 -0.4,1.6 0,0.6 0.1,1.1 0.3,1.5 0.2,0.4 0.5,0.7 0.8,1 0.3,0.2 0.8,0.4 1.3,0.5 0.3,0.1 0.9,0.2 1.5,0.2 z"
           id="path89862" />
        <path
           style="fill:#ffffff"
           inkscape:connector-curvature="0"
           class="st1"
           d="m 199,230 h -1.9 v -20.5 c 0.6,-0.2 1.3,-0.4 2.2,-0.6 0.9,-0.2 2,-0.3 3.4,-0.3 1.1,0 2.2,0.2 3.1,0.6 0.9,0.4 1.7,0.9 2.4,1.6 0.7,0.7 1.2,1.6 1.6,2.5 0.4,1 0.6,2.1 0.6,3.4 0,1.2 -0.2,2.3 -0.5,3.3 -0.3,1 -0.8,1.8 -1.4,2.6 -0.6,0.7 -1.3,1.3 -2.2,1.7 -0.9,0.4 -1.9,0.6 -3,0.6 -1,0 -1.9,-0.1 -2.7,-0.4 -0.8,-0.3 -1.3,-0.6 -1.6,-0.8 z m 0,-8.3 c 0.2,0.1 0.4,0.3 0.7,0.5 0.3,0.2 0.6,0.3 0.9,0.4 0.4,0.1 0.8,0.3 1.2,0.3 0.4,0.1 0.9,0.1 1.3,0.1 1,0 1.8,-0.2 2.4,-0.5 0.6,-0.3 1.2,-0.8 1.6,-1.4 0.4,-0.6 0.7,-1.2 0.9,-2 0.2,-0.8 0.3,-1.6 0.3,-2.4 0,-2 -0.5,-3.6 -1.5,-4.7 -1,-1.1 -2.4,-1.6 -4.1,-1.6 -1,0 -1.7,0 -2.3,0.1 -0.6,0.1 -1,0.2 -1.3,0.3 v 10.9 z"
           id="path89864" />
        <path
           style="fill:#ffffff"
           inkscape:connector-curvature="0"
           class="st1"
           d="m 215.5,204.3 c 0,0.5 -0.1,0.8 -0.4,1.1 -0.3,0.3 -0.6,0.4 -1,0.4 -0.4,0 -0.7,-0.1 -1,-0.4 -0.3,-0.3 -0.4,-0.6 -0.4,-1.1 0,-0.5 0.1,-0.8 0.4,-1.1 0.3,-0.3 0.6,-0.4 1,-0.4 0.4,0 0.7,0.1 1,0.4 0.2,0.3 0.4,0.7 0.4,1.1 z m -0.5,20.2 h -1.9 V 209 h 1.9 z"
           id="path89866" />
      </g>
      <g
         id="g89874"
         transform="matrix(1.8940782,0,0,1.8940782,-60.421403,-235.6534)"
         style="fill:#ffffff">
        <path
           style="fill:#ffffff"
           inkscape:connector-curvature="0"
           class="st2"
           d="m 97.7,214.3 -0.6,-0.6 0.6,-0.6 1.9,-1.9 c 1.3,-1.3 1.2,-3.4 0.1,-5 -0.7,-1 -1.5,-1.9 -2.3,-2.7 -0.8,-0.8 -1.7,-1.6 -2.5,-2.1 -2.4,-1.7 -3.6,-1.3 -5,0.1 l -1.9,1.9 -0.6,0.6 -1.8,-1.8 c -1.4,-1.4 -3.5,-1.8 -5.5,-0.6 -1.9,1.2 -3.1,2.2 -4.2,3.9 0.2,0 0.4,0 0.6,0 1.5,0 3,0.6 4.1,1.7 l 0.8,0.8 1.4,-1.4 c 0.8,-0.8 1.9,-1.7 3.3,-1.7 1.1,0 2.2,0.4 3.5,1.4 0.9,0.6 1.8,1.4 2.7,2.3 0.9,0.9 1.8,1.9 2.5,2.9 1.6,2.2 1.5,5.1 -0.3,6.9 l -1.4,1.4 1.4,1.4 c 0.8,0.8 1.6,2.2 1.2,4.1 1.4,-1 2.6,-2.3 3.7,-4.2 1.1,-1.8 1.5,-3.5 0,-4.9 z"
           id="path89870" />
        <path
           style="fill:#ffffff"
           inkscape:connector-curvature="0"
           class="st0"
           d="m 93.5,226.7 c 1.1,-1.8 1.5,-3.5 0,-4.9 l -1.8,-1.8 -0.6,-0.6 0.6,-0.6 1.9,-1.9 c 1.3,-1.3 1.2,-3.4 0.1,-5 -0.7,-1 -1.5,-1.9 -2.3,-2.7 -0.8,-0.8 -1.7,-1.6 -2.5,-2.1 -2.4,-1.7 -3.6,-1.3 -5,0.1 l -1.9,1.8 -0.6,0.6 -1.8,-1.8 c -1.4,-1.4 -3.5,-1.8 -5.5,-0.6 -2.3,1.4 -3.5,2.5 -4.9,4.9 -1.1,1.8 -1.3,3.6 0.1,5.1 l 1.7,1.7 0.6,0.6 -0.6,0.6 -1.9,1.9 c -1.3,1.3 -0.9,3.2 0,4.9 1.1,2 2.5,3.6 4.9,4.9 1.6,0.9 3.5,1.4 4.9,0 l 1.9,-1.9 0.6,-0.6 2.4,2.4 c 1.4,1.4 2.9,1 4.9,0 1.9,-1.1 3.4,-2.6 4.8,-5 z"
           id="path89872" />
      </g>
    </g>
  </g>
</svg>
