<?xml version="1.0" encoding="UTF-8" standalone="no"?>
<!-- Created with Inkscape (http://www.inkscape.org/) -->

<svg
   xmlns:dc="http://purl.org/dc/elements/1.1/"
   xmlns:cc="http://creativecommons.org/ns#"
   xmlns:rdf="http://www.w3.org/1999/02/22-rdf-syntax-ns#"
   xmlns:svg="http://www.w3.org/2000/svg"
   xmlns="http://www.w3.org/2000/svg"
   xmlns:sodipodi="http://sodipodi.sourceforge.net/DTD/sodipodi-0.dtd"
   xmlns:inkscape="http://www.inkscape.org/namespaces/inkscape"
   width="515.41046"
   height="517.17859"
   viewBox="0 0 136.36902 136.83683"
   version="1.1"
   id="svg8"
   inkscape:version="0.92.2 (5c3e80d, 2017-08-06)"
   sodipodi:docname="icon_color.svg"
   inkscape:export-filename="/home/anxhelo/Files/Design/exactapi/horizontal_white.png"
   inkscape:export-xdpi="96"
   inkscape:export-ydpi="96">
  <defs
     id="defs2" />
  <sodipodi:namedview
     id="base"
     pagecolor="#ffffff"
     bordercolor="#666666"
     borderopacity="1.0"
     inkscape:pageopacity="0.0"
     inkscape:pageshadow="2"
     inkscape:zoom="0.2528125"
     inkscape:cx="190.63909"
     inkscape:cy="58.965864"
     inkscape:document-units="mm"
     inkscape:current-layer="g179581"
     inkscape:document-rotation="0"
     showgrid="false"
     borderlayer="true"
     inkscape:showpageshadow="false"
     units="px"
     inkscape:pagecheckerboard="false"
     showguides="true"
     inkscape:window-width="1366"
     inkscape:window-height="715"
     inkscape:window-x="0"
     inkscape:window-y="0"
     inkscape:window-maximized="1"
     fit-margin-top="0"
     fit-margin-left="0"
     fit-margin-right="0"
     fit-margin-bottom="0">
    <inkscape:grid
       type="xygrid"
       id="grid10"
       originx="-136.73595"
       originy="-93.837947" />
  </sodipodi:namedview>
  <metadata
     id="metadata5">
    <rdf:RDF>
      <cc:Work
         rdf:about="">
        <dc:format>image/svg+xml</dc:format>
        <dc:type
           rdf:resource="http://purl.org/dc/dcmitype/StillImage" />
        <dc:title></dc:title>
      </cc:Work>
    </rdf:RDF>
  </metadata>
  <g
     inkscape:label="Layer 1"
     inkscape:groupmode="layer"
     id="layer1"
     transform="translate(-136.73594,-66.325229)">
    <g
       id="g179581">
      <g
         id="g89874"
         transform="matrix(4.2243431,0,0,4.2243431,-151.65274,-779.72625)">
        <path
           style="fill:#ffd43d"
           inkscape:connector-curvature="0"
           class="st2"
           d="m 97.7,214.3 -0.6,-0.6 0.6,-0.6 1.9,-1.9 c 1.3,-1.3 1.2,-3.4 0.1,-5 -0.7,-1 -1.5,-1.9 -2.3,-2.7 -0.8,-0.8 -1.7,-1.6 -2.5,-2.1 -2.4,-1.7 -3.6,-1.3 -5,0.1 l -1.9,1.9 -0.6,0.6 -1.8,-1.8 c -1.4,-1.4 -3.5,-1.8 -5.5,-0.6 -1.9,1.2 -3.1,2.2 -4.2,3.9 0.2,0 0.4,0 0.6,0 1.5,0 3,0.6 4.1,1.7 l 0.8,0.8 1.4,-1.4 c 0.8,-0.8 1.9,-1.7 3.3,-1.7 1.1,0 2.2,0.4 3.5,1.4 0.9,0.6 1.8,1.4 2.7,2.3 0.9,0.9 1.8,1.9 2.5,2.9 1.6,2.2 1.5,5.1 -0.3,6.9 l -1.4,1.4 1.4,1.4 c 0.8,0.8 1.6,2.2 1.2,4.1 1.4,-1 2.6,-2.3 3.7,-4.2 1.1,-1.8 1.5,-3.5 0,-4.9 z"
           id="path89870" />
        <path
           style="fill:#316a99"
           inkscape:connector-curvature="0"
           class="st0"
           d="m 93.5,226.7 c 1.1,-1.8 1.5,-3.5 0,-4.9 l -1.8,-1.8 -0.6,-0.6 0.6,-0.6 1.9,-1.9 c 1.3,-1.3 1.2,-3.4 0.1,-5 -0.7,-1 -1.5,-1.9 -2.3,-2.7 -0.8,-0.8 -1.7,-1.6 -2.5,-2.1 -2.4,-1.7 -3.6,-1.3 -5,0.1 l -1.9,1.8 -0.6,0.6 -1.8,-1.8 c -1.4,-1.4 -3.5,-1.8 -5.5,-0.6 -2.3,1.4 -3.5,2.5 -4.9,4.9 -1.1,1.8 -1.3,3.6 0.1,5.1 l 1.7,1.7 0.6,0.6 -0.6,0.6 -1.9,1.9 c -1.3,1.3 -0.9,3.2 0,4.9 1.1,2 2.5,3.6 4.9,4.9 1.6,0.9 3.5,1.4 4.9,0 l 1.9,-1.9 0.6,-0.6 2.4,2.4 c 1.4,1.4 2.9,1 4.9,0 1.9,-1.1 3.4,-2.6 4.8,-5 z"
           id="path89872" />
      </g>
    </g>
  </g>
</svg>
