<?xml version="1.0" encoding="UTF-8" standalone="no"?>
<!-- Created with Inkscape (http://www.inkscape.org/) -->

<svg
   xmlns:dc="http://purl.org/dc/elements/1.1/"
   xmlns:cc="http://creativecommons.org/ns#"
   xmlns:rdf="http://www.w3.org/1999/02/22-rdf-syntax-ns#"
   xmlns:svg="http://www.w3.org/2000/svg"
   xmlns="http://www.w3.org/2000/svg"
   xmlns:sodipodi="http://sodipodi.sourceforge.net/DTD/sodipodi-0.dtd"
   xmlns:inkscape="http://www.inkscape.org/namespaces/inkscape"
   width="1387.4926"
   height="1009.2773"
   viewBox="0 0 367.10741 267.03795"
   version="1.1"
   id="svg8"
   inkscape:version="0.92.2 (5c3e80d, 2017-08-06)"
   sodipodi:docname="vertical_color.svg"
   inkscape:export-filename="/home/anxhelo/Files/Design/exactapi/icon_white.png"
   inkscape:export-xdpi="96"
   inkscape:export-ydpi="96">
  <defs
     id="defs2" />
  <sodipodi:namedview
     id="base"
     pagecolor="#ffffff"
     bordercolor="#666666"
     borderopacity="1.0"
     inkscape:pageopacity="0.0"
     inkscape:pageshadow="2"
     inkscape:zoom="0.2528125"
     inkscape:cx="605.52259"
     inkscape:cy="595.67511"
     inkscape:document-units="mm"
     inkscape:current-layer="g179581"
     inkscape:document-rotation="0"
     showgrid="false"
     borderlayer="true"
     inkscape:showpageshadow="false"
     units="px"
     inkscape:pagecheckerboard="false"
     showguides="true"
     inkscape:window-width="1366"
     inkscape:window-height="715"
     inkscape:window-x="0"
     inkscape:window-y="0"
     inkscape:window-maximized="1"
     fit-margin-top="0"
     fit-margin-left="0"
     fit-margin-right="0"
     fit-margin-bottom="0">
    <inkscape:grid
       type="xygrid"
       id="grid10"
       originx="-26.964692"
       originy="-77.420772" />
  </sodipodi:namedview>
  <metadata
     id="metadata5">
    <rdf:RDF>
      <cc:Work
         rdf:about="">
        <dc:format>image/svg+xml</dc:format>
        <dc:type
           rdf:resource="http://purl.org/dc/dcmitype/StillImage" />
        <dc:title></dc:title>
      </cc:Work>
    </rdf:RDF>
  </metadata>
  <g
     inkscape:label="Layer 1"
     inkscape:groupmode="layer"
     id="layer1"
     transform="translate(-26.964681,47.458718)">
    <g
       id="g179581">
      <g
         id="g179778"
         transform="matrix(3.316227,0,0,3.316227,-124.92764,71.748244)">
        <g
           id="g89892"
           transform="matrix(1.0345825,0,0,1.0345825,-46.688924,-105.64331)">
          <path
             style="fill:#316a99"
             inkscape:connector-curvature="0"
             class="st0"
             d="m 89.4,131.9 c 0,-1.4 0.2,-2.6 0.6,-3.6 0.4,-1 1,-1.9 1.6,-2.6 0.7,-0.7 1.5,-1.2 2.3,-1.6 0.9,-0.3 1.8,-0.5 2.7,-0.5 2.2,0 3.8,0.7 5.1,2 1.2,1.3 1.8,3.3 1.8,6 0,0.2 0,0.4 0,0.7 0,0.3 0,0.5 0,0.7 H 93.2 c 0.1,1.3 0.5,2.2 1.3,2.9 0.8,0.7 1.9,1 3.4,1 0.9,0 1.7,-0.1 2.4,-0.2 0.7,-0.2 1.3,-0.3 1.7,-0.5 l 0.5,3 c -0.2,0.1 -0.5,0.2 -0.8,0.3 -0.4,0.1 -0.8,0.2 -1.2,0.3 -0.5,0.1 -0.9,0.2 -1.5,0.2 -0.5,0.1 -1.1,0.1 -1.6,0.1 -1.4,0 -2.6,-0.2 -3.6,-0.6 -1,-0.4 -1.9,-1 -2.5,-1.7 -0.7,-0.7 -1.2,-1.6 -1.5,-2.6 -0.2,-1 -0.4,-2.1 -0.4,-3.3 z m 10.5,-1.6 c 0,-0.5 -0.1,-1 -0.2,-1.4 -0.1,-0.5 -0.3,-0.8 -0.6,-1.2 -0.3,-0.3 -0.6,-0.6 -1,-0.8 -0.4,-0.2 -0.9,-0.3 -1.4,-0.3 -0.6,0 -1,0.1 -1.5,0.3 -0.5,0.2 -0.8,0.5 -1.1,0.8 -0.3,0.3 -0.5,0.7 -0.7,1.2 -0.2,0.4 -0.3,0.9 -0.3,1.4 z"
             id="path89876" />
          <path
             style="fill:#316a99"
             inkscape:connector-curvature="0"
             class="st0"
             d="m 111.5,128.8 3.3,-4.8 h 3.8 l -5.3,7.5 c 1.1,1.4 2.2,2.8 3.2,4.2 1,1.4 1.8,2.7 2.5,4 h -4 c -0.2,-0.4 -0.4,-0.8 -0.7,-1.2 -0.3,-0.4 -0.6,-0.9 -0.9,-1.4 -0.3,-0.5 -0.7,-0.9 -1,-1.4 -0.3,-0.5 -0.7,-0.9 -1,-1.3 -0.7,0.8 -1.4,1.7 -2.1,2.7 -0.7,1 -1.2,1.9 -1.7,2.6 H 104 c 0.3,-0.6 0.7,-1.2 1.1,-1.9 0.4,-0.7 0.9,-1.3 1.4,-2 0.5,-0.7 1,-1.4 1.5,-2.1 0.5,-0.7 1,-1.4 1.6,-2 l -5.3,-7.7 h 4 z"
             id="path89878" />
          <path
             style="fill:#316a99"
             inkscape:connector-curvature="0"
             class="st0"
             d="m 125.5,123.6 c 1.2,0 2.2,0.1 3,0.5 0.8,0.3 1.5,0.7 2,1.3 0.5,0.5 0.8,1.2 1.1,2 0.2,0.8 0.3,1.6 0.3,2.5 v 9.5 c -0.6,0.1 -1.4,0.3 -2.5,0.4 -1.1,0.2 -2.4,0.3 -3.8,0.3 -0.9,0 -1.8,-0.1 -2.6,-0.3 -0.8,-0.2 -1.4,-0.5 -2,-0.9 -0.6,-0.4 -1,-0.9 -1.3,-1.6 -0.3,-0.6 -0.5,-1.4 -0.5,-2.4 0,-0.9 0.2,-1.7 0.5,-2.3 0.3,-0.6 0.8,-1.1 1.4,-1.5 0.6,-0.4 1.3,-0.7 2.1,-0.8 0.8,-0.1 1.6,-0.3 2.5,-0.3 0.4,0 0.8,0 1.3,0.1 0.4,0.1 0.9,0.1 1.4,0.3 v -0.6 c 0,-0.4 0,-0.8 -0.1,-1.2 -0.1,-0.4 -0.3,-0.7 -0.5,-1 -0.3,-0.3 -0.6,-0.5 -1,-0.7 -0.4,-0.2 -0.9,-0.2 -1.5,-0.2 -0.8,0 -1.6,0.1 -2.3,0.2 -0.7,0.1 -1.3,0.3 -1.7,0.4 l -0.4,-2.9 c 0.5,-0.2 1.1,-0.3 2,-0.5 0.7,-0.2 1.6,-0.3 2.6,-0.3 z m 0.3,13.5 c 1.1,0 2,-0.1 2.5,-0.2 v -4 c -0.2,-0.1 -0.5,-0.1 -0.9,-0.2 -0.4,-0.1 -0.8,-0.1 -1.3,-0.1 -0.4,0 -0.8,0 -1.2,0.1 -0.4,0.1 -0.8,0.2 -1.1,0.3 -0.3,0.2 -0.6,0.4 -0.8,0.7 -0.2,0.3 -0.3,0.7 -0.3,1.1 0,0.9 0.3,1.5 0.8,1.8 0.5,0.3 1.4,0.5 2.3,0.5 z"
             id="path89880" />
          <path
             style="fill:#316a99"
             inkscape:connector-curvature="0"
             class="st0"
             d="m 133.9,131.8 c 0,-1.2 0.2,-2.2 0.5,-3.3 0.4,-1 0.9,-1.9 1.5,-2.6 0.7,-0.7 1.5,-1.3 2.4,-1.7 1,-0.4 2,-0.6 3.2,-0.6 1.5,0 2.9,0.3 4.2,0.8 l -0.8,3 c -0.4,-0.2 -0.9,-0.3 -1.4,-0.5 -0.5,-0.1 -1.1,-0.2 -1.7,-0.2 -1.4,0 -2.5,0.4 -3.2,1.3 -0.7,0.9 -1.1,2.1 -1.1,3.8 0,1.6 0.3,2.8 1,3.7 0.7,0.9 1.9,1.4 3.5,1.4 0.6,0 1.2,-0.1 1.8,-0.2 0.6,-0.1 1.1,-0.3 1.6,-0.5 l 0.5,3 c -0.4,0.2 -1,0.4 -1.8,0.5 -0.8,0.2 -1.6,0.2 -2.5,0.2 -1.3,0 -2.5,-0.2 -3.5,-0.6 -1,-0.4 -1.8,-1 -2.5,-1.7 -0.7,-0.7 -1.1,-1.6 -1.5,-2.6 0,-0.9 -0.2,-2 -0.2,-3.2 z"
             id="path89882" />
          <path
             style="fill:#316a99"
             inkscape:connector-curvature="0"
             class="st0"
             d="m 147.3,119.8 3.6,-0.6 v 4.7 h 5.6 v 3 h -5.6 v 6.4 c 0,1.3 0.2,2.2 0.6,2.7 0.4,0.5 1.1,0.8 2,0.8 0.7,0 1.2,-0.1 1.8,-0.2 0.5,-0.1 0.9,-0.3 1.2,-0.4 l 0.6,2.9 c -0.4,0.2 -1,0.4 -1.7,0.6 -0.7,0.2 -1.5,0.3 -2.4,0.3 -1.1,0 -2.1,-0.1 -2.8,-0.4 -0.8,-0.3 -1.3,-0.7 -1.8,-1.3 -0.4,-0.6 -0.8,-1.3 -0.9,-2.1 -0.2,-0.8 -0.3,-1.7 -0.3,-2.8 v -13.6 z"
             id="path89884" />
          <path
             style="fill:#5c9fd3"
             inkscape:connector-curvature="0"
             class="st1"
             d="m 169,123.8 c 1,0 1.9,0.1 2.6,0.4 0.7,0.3 1.3,0.7 1.7,1.2 0.4,0.5 0.8,1.1 1,1.8 0.2,0.7 0.3,1.5 0.3,2.3 v 9.8 c -0.2,0.1 -0.5,0.1 -0.9,0.2 -0.4,0.1 -0.8,0.1 -1.3,0.2 -0.5,0.1 -1.1,0.1 -1.7,0.2 -0.6,0 -1.2,0.1 -1.9,0.1 -0.8,0 -1.6,-0.1 -2.3,-0.3 -0.7,-0.2 -1.3,-0.5 -1.8,-0.9 -0.5,-0.4 -0.9,-0.9 -1.2,-1.5 -0.3,-0.6 -0.4,-1.4 -0.4,-2.2 0,-0.8 0.2,-1.6 0.5,-2.2 0.3,-0.6 0.8,-1.1 1.4,-1.5 0.6,-0.4 1.3,-0.7 2.1,-0.9 0.8,-0.2 1.7,-0.3 2.6,-0.3 0.3,0 0.6,0 0.9,0 0.3,0 0.6,0.1 0.9,0.1 0.3,0 0.5,0.1 0.8,0.1 0.3,0 0.4,0.1 0.4,0.1 v -1 c 0,-0.5 0,-1.1 -0.1,-1.6 -0.1,-0.5 -0.3,-1 -0.5,-1.4 -0.3,-0.4 -0.6,-0.7 -1.1,-1 -0.5,-0.3 -1.1,-0.4 -1.9,-0.4 -1.1,0 -2,0.1 -2.6,0.2 -0.6,0.2 -1,0.3 -1.2,0.4 L 165,124 c 0.3,-0.2 0.9,-0.3 1.6,-0.5 0.5,0.4 1.4,0.3 2.4,0.3 z m 0.1,14.5 c 0.8,0 1.4,0 2,-0.1 0.6,0 1.1,-0.1 1.5,-0.2 v -5.5 c -0.2,-0.1 -0.6,-0.2 -1,-0.3 -0.5,-0.1 -1.1,-0.2 -2,-0.2 -0.5,0 -1,0 -1.5,0.1 -0.5,0.1 -1,0.2 -1.4,0.5 -0.4,0.2 -0.8,0.5 -1.1,0.9 -0.3,0.4 -0.4,0.9 -0.4,1.6 0,0.6 0.1,1.1 0.3,1.5 0.2,0.4 0.5,0.7 0.8,1 0.3,0.2 0.8,0.4 1.3,0.5 0.4,0.1 0.9,0.2 1.5,0.2 z"
             id="path89886" />
          <path
             style="fill:#5c9fd3"
             inkscape:connector-curvature="0"
             class="st1"
             d="m 180,145.2 h -2 v -20.5 c 0.6,-0.2 1.3,-0.4 2.2,-0.6 0.9,-0.2 2,-0.3 3.4,-0.3 1.1,0 2.2,0.2 3.1,0.6 0.9,0.4 1.7,0.9 2.4,1.6 0.7,0.7 1.2,1.6 1.6,2.5 0.4,1 0.6,2.1 0.6,3.4 0,1.2 -0.2,2.3 -0.5,3.3 -0.3,1 -0.8,1.8 -1.4,2.6 -0.6,0.7 -1.3,1.3 -2.2,1.7 -0.9,0.4 -1.9,0.6 -3,0.6 -1,0 -1.9,-0.1 -2.7,-0.4 -0.8,-0.3 -1.3,-0.6 -1.6,-0.8 v 6.3 z m 0,-8.3 c 0.2,0.1 0.4,0.3 0.7,0.5 0.3,0.2 0.6,0.3 0.9,0.4 0.4,0.1 0.8,0.3 1.2,0.3 0.4,0.1 0.9,0.1 1.3,0.1 1,0 1.8,-0.2 2.4,-0.5 0.6,-0.3 1.2,-0.8 1.6,-1.4 0.4,-0.6 0.7,-1.2 0.9,-2 0.2,-0.8 0.3,-1.6 0.3,-2.4 0,-2 -0.5,-3.6 -1.5,-4.7 -1,-1.1 -2.4,-1.6 -4.1,-1.6 -1,0 -1.7,0 -2.3,0.1 -0.6,0.1 -1,0.2 -1.3,0.3 v 10.9 z"
             id="path89888" />
          <path
             style="fill:#5c9fd3"
             inkscape:connector-curvature="0"
             class="st1"
             d="m 196.4,119.5 c 0,0.5 -0.1,0.8 -0.4,1.1 -0.3,0.3 -0.6,0.4 -1,0.4 -0.4,0 -0.7,-0.1 -1,-0.4 -0.3,-0.3 -0.4,-0.6 -0.4,-1.1 0,-0.5 0.1,-0.8 0.4,-1.1 0.3,-0.3 0.6,-0.4 1,-0.4 0.4,0 0.7,0.1 1,0.4 0.3,0.3 0.4,0.6 0.4,1.1 z m -0.4,20.2 h -2 v -15.5 h 1.9 v 15.5 z"
             id="path89890" />
        </g>
        <g
           id="g89898"
           transform="matrix(1.0345825,0,0,1.0345825,-46.688924,-105.64331)">
          <path
             style="fill:#ffd43d"
             inkscape:connector-curvature="0"
             class="st2"
             d="m 161.1,86.4 -0.8,-0.8 0.8,-0.8 2.5,-2.5 c 1.8,-1.8 1.6,-4.7 0.1,-6.8 -1,-1.3 -2.1,-2.6 -3.2,-3.7 -1.1,-1.1 -2.3,-2.1 -3.5,-2.9 -3.3,-2.3 -4.9,-1.8 -6.8,0.1 l -2.5,2.5 -0.8,0.8 -2.5,-2.5 c -1.9,-1.9 -4.8,-2.5 -7.5,-0.8 -2.6,1.6 -4.2,3 -5.8,5.3 0.3,0 0.6,-0.1 0.9,-0.1 2.1,0 4.1,0.8 5.6,2.4 l 1,1 1.9,-1.9 c 1.1,-1.1 2.5,-2.3 4.6,-2.3 1.5,0 3,0.6 4.8,1.9 1.2,0.9 2.5,2 3.7,3.1 1.3,1.3 2.4,2.6 3.4,4 2.2,3.1 2,7 -0.4,9.4 l -1.9,1.9 1.9,1.9 c 1.1,1.1 2.2,3 1.7,5.6 1.9,-1.3 3.5,-3.1 5.1,-5.8 1.4,-2.4 2,-4.8 0,-6.7 z"
             id="path89894" />
          <path
             style="fill:#316a99"
             inkscape:connector-curvature="0"
             class="st0"
             d="m 155.5,103.3 c 1.4,-2.4 2,-4.8 0,-6.7 l -2.5,-2.5 -0.8,-0.8 0.8,-0.8 2.5,-2.5 c 1.8,-1.8 1.6,-4.7 0.1,-6.8 -1,-1.3 -2.1,-2.6 -3.2,-3.7 -1.1,-1.1 -2.3,-2.1 -3.5,-2.9 -3.3,-2.3 -4.9,-1.8 -6.8,0.1 l -2.5,2.5 -0.8,0.8 -2.5,-2.5 c -1.9,-1.9 -4.8,-2.5 -7.5,-0.8 -3.1,1.9 -4.8,3.5 -6.8,6.8 -1.5,2.4 -1.8,5 0.2,6.9 l 2.3,2.3 0.8,0.8 -0.8,0.8 -2.5,2.5 c -1.8,1.8 -1.3,4.4 -0.1,6.7 1.5,2.7 3.4,4.9 6.6,6.6 2.2,1.2 4.8,1.9 6.7,-0.1 l 2.5,-2.5 0.8,-0.8 3.3,3.3 c 1.9,1.9 4,1.3 6.7,0 3,-1.3 5,-3.4 7,-6.7 z"
             id="path89896" />
        </g>
      </g>
    </g>
  </g>
</svg>
